<svg xmlns="http://www.w3.org/2000/svg" viewBox="0 0 53 59.889">
  <defs>
    <style>
      .cls-1 {
        fill: #fff;
      }

      .cls-1, .cls-3 {
        stroke: #385573;
        stroke-width: 3px;
      }

      .cls-2 {
        fill: orange;
      }

      .cls-3 {
        fill: #d4e1f4;
      }
    </style>
  </defs>
  <g id="mail" transform="translate(-29.5 1.5)">
    <path id="Path_95" data-name="Path 95" class="cls-1" d="M84.5,129.167l-1.467,4.8L66.667,150.334H53.333l-16.5-16.5L35.5,129.167l6.667-6.667a1.564,1.564,0,0,1,1.167-.5H76.667a1.563,1.563,0,0,1,1.167.5Z" transform="translate(-4 -108.444)"/>
    <path id="Path_96" data-name="Path 96" class="cls-1" d="M280.5,129.167l-1.467,4.8-16.367,16.367H256V122h16.667a1.564,1.564,0,0,1,1.166.5Z" transform="translate(-200 -108.444)"/>
    <path id="Union_1" data-name="Union 1" class="cls-1" d="M18.333,46.889H1.667A1.651,1.651,0,0,1,0,45.222V1.667A1.65,1.65,0,0,1,1.667,0H35a1.65,1.65,0,0,1,1.667,1.667V45.222A1.651,1.651,0,0,1,35,46.889Z" transform="translate(37.667 0)"/>
    <path id="Union_2" data-name="Union 2" class="cls-2" d="M11.667,23.333h0A11.683,11.683,0,0,1,0,11.667,11.68,11.68,0,0,1,11.667,0h0A11.667,11.667,0,0,1,23.332,11.479q0,.094,0,.188A5.006,5.006,0,0,1,17.442,16.6a4.847,4.847,0,0,1-1.76-.7A5.284,5.284,0,0,1,15,15.367a5.008,5.008,0,0,1-2.716,1.262,4.942,4.942,0,0,1-.617.038h0a5,5,0,0,1,0-10h0a4.993,4.993,0,0,1,5,5,1.667,1.667,0,0,0,3.333,0A8.331,8.331,0,1,0,11.667,20a8.7,8.7,0,0,0,1.309-.1,9.77,9.77,0,0,0,2.624-.8,1.72,1.72,0,0,1,1.119-.094,1.591,1.591,0,0,1,1.082.928,1.643,1.643,0,0,1-.8,2.2,12.849,12.849,0,0,1-4.23,1.15q-.551.05-1.1.05ZM10,11.667a1.65,1.65,0,0,0,1.667,1.667,1.619,1.619,0,0,0,.493-.077,1.666,1.666,0,0,0,1.14-1.39v-.3a1.738,1.738,0,0,0-.281-.824A1.62,1.62,0,0,0,11.667,10,1.65,1.65,0,0,0,10,11.667Z" transform="translate(44.333 6.889)"/>
    <path id="Path_102" data-name="Path 102" class="cls-3" d="M31.488,186.4A1.665,1.665,0,0,0,31,187.573v30a5.082,5.082,0,0,0,1.462,3.538l4.867-1.533,13.2-13.2-1.2-2.136Z" transform="translate(0 -165.684)"/>
    <path id="Path_103" data-name="Path 103" class="cls-3" d="M322.887,217.573v-30a1.664,1.664,0,0,0-.488-1.178L304.554,204.24l-1.431,1.9,13.438,13.438,4.865,1.532c.012-.012.027-.014.039-.026A5.039,5.039,0,0,0,322.887,217.573Z" transform="translate(-241.887 -165.684)"/>
    <path id="Union_3" data-name="Union 3" class="cls-3" d="M23.534,18.333h-20A5,5,0,0,1,.033,16.9C0,16.9,0,16.9,0,16.867L16.867,0H30.2L47.067,16.867a5.088,5.088,0,0,1-3.534,1.467Z" transform="translate(32.467 38.556)"/>
  </g>
</svg>
